Coordinates
version=1
nRows=13
nColumns=40
inDegrees=yes

Units are S.I. units (second, meters, Newtons, ...)
Angles are in degrees.

endheader
time	pelvis_tilt	pelvis_list	pelvis_rotation	pelvis_tx	pelvis_ty	pelvis_tz	hip_flexion_r	hip_adduction_r	hip_rotation_r	knee_angle_r	knee_angle_r_beta	ankle_angle_r	subtalar_angle_r	mtp_angle_r	hip_flexion_l	hip_adduction_l	hip_rotation_l	knee_angle_l	knee_angle_l_beta	ankle_angle_l	subtalar_angle_l	mtp_angle_l	lumbar_extension	lumbar_bending	lumbar_rotation	arm_flex_r	arm_add_r	arm_rot_r	elbow_flex_r	pro_sup_r	wrist_flex_r	wrist_dev_r	arm_flex_l	arm_add_l	arm_rot_l	elbow_flex_l	pro_sup_l	wrist_flex_l	wrist_dev_l
     22.75000000	     -6.91522245	     -4.99524426	     -4.46896463	      0.84810594	      0.92741913	      0.51838477	     16.52109719	      4.00994365	    -13.44006037	     16.79666361	     16.79666361	      8.91871056	      0.26683974	     -2.98900512	     30.21376258	    -11.75870452	      0.06368340	     61.53559258	     61.53559258	     10.20018218	    -18.81763785	     14.05248992	     -9.90304853	      6.19271610	      0.74566637	     10.67639360	    -18.08663094	     -2.50619898	     65.42996033	     44.97344619	      0.00000000	      0.00000000	      4.47881167	     -8.00910795	     -5.70987628	     25.36476499	     45.22435878	      0.00000000	      0.00000000
     22.76271429	     -7.10079560	     -4.98948310	     -4.04655316	      0.84665816	      0.92756087	      0.51885221	     16.08071902	      4.05801731	    -13.60675668	     16.29376030	     16.29376030	      9.02724016	      0.10168802	     -3.27870106	     31.43878456	    -11.77622692	      0.21792527	     59.53464753	     59.53464753	     10.76247021	    -18.95438904	     14.81330341	     -9.91320922	      6.09702905	      0.86921465	     11.33317372	    -18.73606366	     -2.90744679	     69.03313989	     44.89051423	      0.00000000	      0.00000000	      3.48190639	     -8.09744850	     -6.08494908	     25.61251133	     45.32584703	      0.00000000	      0.00000000
     22.77542857	     -7.21996302	     -4.98387563	     -3.61940850	      0.84526902	      0.92778416	      0.51927228	     15.55422394	      4.09927845	    -13.78842506	     15.77036467	     15.77036467	      9.20616250	      0.03639252	     -3.35560024	     32.39590409	    -11.75691563	      0.29811160	     57.21831578	     57.21831578	     11.13629904	    -19.05390554	     15.21629717	     -9.96205883	      5.98252399	      0.59746636	     12.79194461	    -18.94727871	     -3.35060917	     71.17909671	     44.84898259	      0.00000000	      0.00000000	      2.46359118	     -8.28978130	     -6.17757548	     25.32003935	     45.34297530	      0.00000000	      0.00000000
     22.78814286	     -7.37456561	     -4.96109235	     -3.22532583	      0.84388548	      0.92783219	      0.51957961	     15.11887880	      4.11051254	    -13.98052113	     15.32144410	     15.32144410	      9.30454401	     -0.06398250	     -3.79324489	     33.27855219	    -11.66199178	      0.34409005	     54.76163562	     54.76163562	     11.60648722	    -19.10435854	     16.16144434	    -10.03704201	      5.89711331	      0.88612927	     13.33090373	    -19.72593119	     -3.96294183	     74.91334492	     44.77883018	      0.00000000	      0.00000000	      1.53649107	     -8.37047400	     -6.45129640	     25.82456800	     45.42519368	      0.00000000	      0.00000000
     22.80085714	     -7.51021688	     -4.93139236	     -2.82966319	      0.84249181	      0.92789005	      0.51977249	     14.67850382	      4.10655091	    -14.15787449	     14.89564407	     14.89564407	      9.48485086	     -0.12404221	     -3.87550503	     33.98427469	    -11.47985465	      0.40785572	     52.06592984	     52.06592984	     11.83960962	    -19.12650676	     16.58265846	    -10.07796896	      5.78209033	      0.71048173	     14.79662404	    -19.94233247	     -4.45577424	     76.84702499	     44.74719552	      0.00000000	      0.00000000	      0.61411313	     -8.51072309	     -6.50846863	     25.54753266	     45.43446963	      0.00000000	      0.00000000
     22.81357143	     -7.66430917	     -4.86008795	     -2.45551898	      0.84108074	      0.92790384	      0.51977962	     14.29974216	      4.04032901	    -14.33041238	     14.53420712	     14.53420712	      9.67630533	     -0.15602895	     -3.98464481	     34.57813276	    -11.18463886	      0.45774087	     49.19050807	     49.19050807	     11.97927391	    -19.10289630	     16.95439614	    -10.11576744	      5.63900143	      0.61700565	     16.08329728	    -20.23441680	     -4.89901942	     78.93508022	     44.70717073	      0.00000000	      0.00000000	     -0.24574454	     -8.64119523	     -6.60800381	     25.45868353	     45.44845301	      0.00000000	      0.00000000
     22.82628571	     -7.86929304	     -4.87091335	     -2.07132441	      0.83967784	      0.92764324	      0.51957168	     14.01501752	      4.02100767	    -14.61395547	     14.24893589	     14.24893589	      9.85005986	     -0.07852633	     -4.25146456	     35.18230673	    -10.86342086	      0.67189270	     46.28412232	     46.28412232	     12.01147657	    -19.03217563	     16.94910221	    -10.13372983	      5.64287206	      0.77934043	     16.91621123	    -20.81900443	     -5.60485781	     82.02247121	     44.65364465	      0.00000000	      0.00000000	     -1.05269356	     -8.64037633	     -6.85201349	     25.87526674	     45.50010350	      0.00000000	      0.00000000
     22.83900000	     -8.08660093	     -4.81030940	     -1.73086765	      0.83830708	      0.92736434	      0.51921583	     13.77188971	      3.91265986	    -14.91045252	     14.01416419	     14.01416419	     10.01732403	     -0.00574595	     -4.47241493	     35.64183993	    -10.43493694	      0.81616113	     43.19516559	     43.19516559	     11.80889777	    -18.89438484	     16.34988907	    -10.12630258	      5.54826808	      1.08544667	     17.66482259	    -21.28253843	     -6.54302899	     84.67888463	     44.63098467	      0.00000000	      0.00000000	     -1.68731304	     -8.67008526	     -7.11580754	     26.12367244	     45.56834331	      0.00000000	      0.00000000
     22.85171429	     -8.23276000	     -4.73490438	     -1.38786573	      0.83694026	      0.92718098	      0.51867868	     13.49974596	      3.77917931	    -15.06519741	     13.86520191	     13.86520191	     10.28001601	     -0.03582915	     -4.56827585	     35.96182743	     -9.86821225	      1.22770342	     40.11319370	     40.11319370	     11.69652629	    -18.63623264	     16.29814140	    -10.18345617	      5.44102125	      1.05184004	     19.05229966	    -21.48490813	     -7.03081631	     86.12394542	     44.61476974	      0.00000000	      0.00000000	     -2.26071477	     -8.61533322	     -7.17729940	     25.92023682	     45.57947043	      0.00000000	      0.00000000
     22.86442857	     -8.48862150	     -4.68971598	     -1.07313610	      0.83562435	      0.92673787	      0.51797162	     13.34005878	      3.66645564	    -15.25792900	     13.71725376	     13.71725376	     10.51580132	     -0.04027646	     -4.65041340	     36.36624035	     -9.34153120	      1.62174478	     37.12983476	     37.12983476	     11.70975262	    -18.05120641	     16.22170064	    -10.06960009	      5.39598790	      1.12259677	     20.41779782	    -21.84310294	     -7.46809721	     87.34497232	     44.60026517	      0.00000000	      0.00000000	     -2.74643447	     -8.52955438	     -7.23792174	     25.80543605	     45.58682863	      0.00000000	      0.00000000
     22.87714286	     -8.57928877	     -4.61993245	     -0.77252231	      0.83453391	      0.92654241	      0.51720718	     12.98876434	      3.50312263	    -15.55185360	     13.59193257	     13.59193257	     10.81401837	      0.17556207	     -4.75778754	     36.42985843	     -8.81470694	      1.96955524	     34.05797313	     34.05797313	     11.44395609	    -17.29205320	     15.56368807	    -10.17397403	      5.30247047	      1.00447478	     21.58495195	    -21.73045389	     -7.94287631	     89.30933866	     44.56644272	      0.00000000	      0.00000000	     -3.31105018	     -8.51834658	     -7.40412126	     25.77057034	     45.61571227	      0.00000000	      0.00000000
     22.88985714	     -8.70901027	     -4.62024554	     -0.48655111	      0.83356519	      0.92618709	      0.51633805	     12.66555865	      3.40628586	    -15.88780585	     13.45945756	     13.45945756	     11.09826852	      0.47776968	     -4.83280638	     36.49852354	     -8.42172946	      2.21807330	     31.15089464	     31.15089464	     11.16499936	    -16.10406562	     14.39874616	    -10.24221855	      5.31138734	      1.08163209	     22.61599911	    -21.77857413	     -8.57042757	     91.15871734	     44.54460751	      0.00000000	      0.00000000	     -3.72576455	     -8.40718854	     -7.64761034	     25.87766153	     45.66327746	      0.00000000	      0.00000000
     22.90257143	     -8.82965079	     -4.70670767	     -0.22630658	      0.83284781	      0.92570891	      0.51541043	     12.27220318	      3.41204803	    -16.27439962	     13.25267309	     13.25267309	     11.42748636	      0.91785318	     -4.82414940	     36.54271970	     -8.19340402	      2.29741508	     28.46972110	     28.46972110	     10.48842199	    -14.69041897	     12.18737487	    -10.26773694	      5.42663494	      1.35901918	     23.47837119	    -21.82998710	     -9.57092811	     93.15469615	     44.54428295	      0.00000000	      0.00000000	     -4.01336044	     -8.20041031	     -8.12451999	     26.07327793	     45.76667868	      0.00000000	      0.00000000
